<?xml version="1.0" encoding="utf-8"?>
<!-- Generator: Adobe Illustrator 19.2.1, SVG Export Plug-In . SVG Version: 6.00 Build 0)  -->
<svg version="1.1" id="Layer_1" xmlns="http://www.w3.org/2000/svg" xmlns:xlink="http://www.w3.org/1999/xlink" x="0px" y="0px"
	 viewBox="0 0 100 100" style="enable-background:new 0 0 100 100;" xml:space="preserve">
<style type="text/css">
	.st0{fill:url(#SVGID_1_);}
	.st1{fill:#180C2E;}
	.st2{fill:#1A053B;}
	.st3{fill:#FFFFFF;}
	.st4{fill:url(#SVGID_2_);}
	.st5{fill:#FF0000;}
	.st6{fill:url(#SVGID_3_);}
	.st7{fill:url(#SVGID_4_);}
</style>
<g>
	<path class="st3" d="M74.5,2.6h-49c-3.3,0-6,2.7-6,6v82.8c0,3.3,2.7,6,6,6h49c3.3,0,6-2.7,6-6V8.6C80.5,5.3,77.8,2.6,74.5,2.6z
		 M22.5,17.7h55v62.7h-55V17.7z M25.5,5.6h49c1.7,0,3,1.3,3,3v7.1h-55V8.6C22.5,7,23.8,5.6,25.5,5.6z M74.5,94.4h-49
		c-1.7,0-3-1.3-3-3v-9h55v9C77.5,93,76.2,94.4,74.5,94.4z"/>
	<path class="st3" d="M50,83.7c-2.7,0-4.9,2.2-4.9,4.9c0,2.7,2.2,4.9,4.9,4.9c2.7,0,4.9-2.2,4.9-4.9C54.9,85.9,52.7,83.7,50,83.7z
		 M50,91.5c-1.6,0-2.9-1.3-2.9-2.9c0-1.6,1.3-2.9,2.9-2.9c1.6,0,2.9,1.3,2.9,2.9C52.9,90.2,51.6,91.5,50,91.5z"/>
	<path class="st3" d="M43.2,12.2h13.6c0.6,0,1-0.4,1-1c0-0.6-0.4-1-1-1H43.2c-0.6,0-1,0.4-1,1C42.2,11.7,42.6,12.2,43.2,12.2z"/>
	<path class="st3" d="M39.6,12.2c0.3,0,0.5-0.1,0.7-0.3c0.2-0.2,0.3-0.4,0.3-0.7c0-0.3-0.1-0.5-0.3-0.7c-0.2-0.2-0.4-0.3-0.7-0.3
		c-0.3,0-0.5,0.1-0.7,0.3c-0.2,0.2-0.3,0.4-0.3,0.7c0,0.3,0.1,0.5,0.3,0.7C39.1,12.1,39.3,12.2,39.6,12.2z"/>
</g>
</svg>
